<?xml version="1.0" encoding="utf-8"?>
<svg width="264" height="143.202" viewBox="0 0 264 143.202" fill="none" xmlns="http://www.w3.org/2000/svg">
  <g>
    <path d="M21.7946 1.5C20.5496 0.709015 19.2166 0.209015 17.7946 0C13.4976 4.798 8.99759 9.465 4.29459 14C-0.140411 20.144 -1.14041 26.81 1.29459 34C6.5546 41.263 12.5546 47.93 19.2946 54L35.2946 38C39.9616 30.333 39.9616 22.667 35.2946 15L21.7946 1.5ZM30.8575 26C28.9985 17.48 24.9985 10.147 18.8575 4C15.7015 8.97198 12.5345 13.972 9.35751 19C7.25949 25.126 7.59354 31.126 10.3575 37L19.3575 49C22.6905 44.333 26.0245 39.667 29.3575 35Q30.697 30.6005 30.8575 26Z" fill="#BBA87E" fill-rule="evenodd" transform="translate(112 0)" />
    <path d="M70 72.709C62.931 66.3839 56.931 59.217 52 51.209C39.525 29.408 22.192 24.574 0 36.709C10.014 35.251 19.68 36.584 29 40.709L62 73.709C74.557 81.098 87.89 82.9309 102 79.209C121.207 97.698 140.54 97.865 160 79.709C176.681 83.377 192.015 80.377 206 70.709C214.667 61.376 223.333 52.042 232 42.709C241.894 36.803 252.56 34.803 264 36.709C258.855 34.326 253.522 32.326 248 30.709C235.821 28.549 225.988 32.383 218.5 42.209C212.052 51.658 205.218 60.825 198 69.709C187.726 77.977 176.392 79.977 164 75.709C166.789 71.584 169.956 67.751 173.5 64.209C180.242 51.93 187.908 40.2629 196.5 29.209C204.873 19.818 215.373 15.6509 228 16.709C220.109 12.691 211.776 11.357 203 12.709C194.841 16.868 188.674 23.035 184.5 31.209C177.337 46.215 168.67 60.215 158.5 73.209C149.344 66.249 141.844 57.916 136 48.209C143.508 36.525 151.508 25.192 160 14.209C168.356 7.14597 178.022 3.97895 189 4.70896C173.107 -3.68804 159.773 -0.855034 149 13.209C143.337 22.533 137.67 31.866 132 41.209C126.301 32.006 120.801 22.673 115.5 13.209C104.436 -0.816032 90.936 -3.64904 75 4.70896C89.007 4.29597 100.507 9.46296 109.5 20.209C115.915 29.3709 122.082 38.704 128 48.209C122.09 58.1209 114.423 66.454 105 73.209C100.961 69.334 97.461 65.001 94.5 60.209C88.167 48.876 81.833 37.542 75.5 26.209C64.914 11.286 51.414 8.11897 35 16.709C51.802 15.771 64.135 22.604 72 37.209C77.392 44.974 82.558 52.974 87.5 61.209C91.213 66.133 95.046 70.967 99 75.709C88.958 79.583 79.291 78.583 70 72.709ZM148 70.5C142.391 64.721 136.724 59.221 131 54Q121.184 67.566 107 76.5C123.555 94.576 139.888 94.409 156 76C153.196 74.362 150.529 72.529 148 70.5Z" fill="#BCA77B" fill-rule="evenodd" transform="translate(0 50)" />
  </g>
</svg>